<svg id="White_Logo_Marks" data-name="White Logo Marks" xmlns="http://www.w3.org/2000/svg" viewBox="0 0 1080 1080"><defs><style>.cls-1{fill:#fff;}.cls-2{fill:#231f20;}</style></defs><title>Eydean</title><path class="cls-1" d="M811.47,456.84a296.9,296.9,0,0,1-491.76,303.3c-115.7-115.72-115.7-304,0-419.75,56-56,130.5-86.79,209.87-86.79a296.91,296.91,0,0,1,93.3,14.94A133.5,133.5,0,0,1,808,271.92C858.75,322.71,859.92,404.62,811.47,456.84Z"/><circle class="cls-2" cx="529.6" cy="550.28" r="125.46" transform="translate(-157.48 883.75) rotate(-71.99)"/><path class="cls-2" d="M795.23,447.75A115.34,115.34,0,0,0,632.1,284.65q-2.26,2.27-4.39,4.66c-99.24-37.13-215.58-15.89-295.27,63.8-108.69,108.72-108.69,285.59,0,394.31A279,279,0,0,0,790.69,452.05C792.24,450.66,793.75,449.24,795.23,447.75ZM700.59,721.27a241.82,241.82,0,0,1-342,0c-94.31-94.28-94.31-247.7,0-342a242.31,242.31,0,0,1,248.72-58A115.47,115.47,0,0,0,758.67,472.45a242.48,242.48,0,0,1-58.08,248.82ZM769.08,421.6a78.4,78.4,0,0,1-127.69-85.77,78.94,78.94,0,0,1,16.86-25c1.79-1.75,3.6-3.42,5.51-5A78.35,78.35,0,0,1,774.11,416.1C772.53,418,770.87,419.82,769.08,421.6Z"/></svg>